<?xml version="1.0" encoding="UTF-8" standalone="no"?>
<svg
   xmlns:dc="http://purl.org/dc/elements/1.1/"
   xmlns:cc="http://creativecommons.org/ns#"
   xmlns:rdf="http://www.w3.org/1999/02/22-rdf-syntax-ns#"
   xmlns:svg="http://www.w3.org/2000/svg"
   xmlns="http://www.w3.org/2000/svg"
   xmlns:sodipodi="http://sodipodi.sourceforge.net/DTD/sodipodi-0.dtd"
   xmlns:inkscape="http://www.inkscape.org/namespaces/inkscape"
   width="74"
   height="28"
   viewBox="0 0 74 28"
   fill="none"
   version="1.1"
   id="bb_logo"
   sodipodi:docname="logo.svg"
   inkscape:version="1.0.2-2 (e86c870879, 2021-01-15)">
  <metadata
     id="metadata12">
    <rdf:RDF>
      <cc:Work
         rdf:about="">
        <dc:format>image/svg+xml</dc:format>
        <dc:type
           rdf:resource="http://purl.org/dc/dcmitype/StillImage" />
      </cc:Work>
    </rdf:RDF>
  </metadata>
  <defs
     id="bb_logo_w" />
  <sodipodi:namedview
     pagecolor="#ffffff"
     bordercolor="#666666"
     borderopacity="1"
     objecttolerance="10"
     gridtolerance="10"
     guidetolerance="10"
     inkscape:pageopacity="0"
     inkscape:pageshadow="2"
     inkscape:window-width="1920"
     inkscape:window-height="1017"
     id="namedview8"
     showgrid="false"
     inkscape:zoom="16.238321"
     inkscape:cx="32.305121"
     inkscape:cy="12.269027"
     inkscape:window-x="-8"
     inkscape:window-y="-8"
     inkscape:window-maximized="1"
     inkscape:current-layer="bb_logo"
     inkscape:document-rotation="0" />
  <path
     d="M19 10.9999H14V4.99995C14 4.69995 13.8 4.39995 13.6 4.19995C13.2 3.89995 12.5 3.99995 12.2 4.39995L4.2 15.3999C4.1 15.5999 4 15.7999 4 15.9999C4 16.5999 4.4 16.9999 5 16.9999H10V22.9999C10 23.5999 10.4 23.9999 11 23.9999C11.3 23.9999 11.6 23.7999 11.8 23.5999L19.8 12.5999C19.9 12.3999 20 12.1999 20 11.9999C20 11.3999 19.6 10.9999 19 10.9999Z"
     fill="rgba(131, 24, 67, 1)"
     id="bb_logo_1" />
  <text
     xml:space="preserve"
     style="font-size:15.7112px;line-height:1.25;font-family:'Cooper Black';-inkscape-font-specification:'Cooper Black, Normal';stroke-width:0.999998"
     x="17.047604"
     y="15.230258"
     id="bb_logo_text"
     fill="#eeeeee"
     transform="scale(0.70401033,1.4204337)"><tspan
       sodipodi:role="line"
       id="tspan14"
       x="17.047604"
       y="15.230258"
       style="stroke-width:0.999998">Blackburn</tspan></text>
</svg>
